# xmcd CD Database Entry
#
# Track frame offsets:
# 151
# 27401
# 43247
# 68604
# 100371
# 118272
# 146587
# 177527
# 202851
# 221576
#
# Disc length: 3120 seconds
#
# Revision: 1
# Processed by: cddbd v1.4b42PL1 Copyright (c) Steve Scherf et al.
# Submitted via: tcd 2.0b
#
DISCID=980c2e0a
DTITLE=Various Artist - Blues After Hours
DYEAR=1900
DGENRE=
TTITLE0=Baby Doll Blues - Ronnie Earl
TTITLE1=They Killed Crazy Horse - Joe Houston and Otis Grand
TTITLE2=4811 Wadsworth (Blues For George) - Rod Piazza and The Mighty F
TTITLE2=lyers
TTITLE3=Get Down With The Blues - Tony Z
TTITLE4=Connors Sanctified - Gene "Mighty Flea"
TTITLE5=Down At P.J.'s Place - David Maxwell
TTITLE6=Blues For Al And Peggy - Mike Morgan and the Crawl
TTITLE7=I'm Not Ashamed To Play The Blues - Tutu Jones
TTITLE8=Blues For Henry - Hubert Sumlin
TTITLE9=John Henry - Paul Rishell and Annie Raines
EXTD=
EXTT0=
EXTT1=
EXTT2=
EXTT3=
EXTT4=
EXTT5=
EXTT6=
EXTT7=
EXTT8=
EXTT9=
PLAYORDER=
